<!--?xml version="1.0" standalone="no"?-->
              <svg id="sw-js-blob-svg" viewBox="0 0 100 100" xmlns="http://www.w3.org/2000/svg" version="1.1">
                    <defs> 
                        <linearGradient id="sw-gradient" x1="0" x2="1" y1="1" y2="0">
                            <stop id="stop1" stop-color="rgba(248, 117, 55, 1)" offset="0%"></stop>
                            <stop id="stop2" stop-color="rgba(251, 168, 31, 1)" offset="100%"></stop>
                        </linearGradient>
                    </defs>
                <path fill="url(#sw-gradient)" d="M22.2,-26.1C29.5,-20.4,36.4,-14,38.8,-6.1C41.1,1.9,38.8,11.5,34.3,20.1C29.7,28.7,22.9,36.4,14.2,39.9C5.5,43.5,-5,43,-14.8,39.8C-24.6,36.6,-33.7,30.7,-38.1,22.3C-42.6,14,-42.3,3.3,-38.3,-4.6C-34.4,-12.5,-26.7,-17.6,-19.7,-23.3C-12.7,-29,-6.3,-35.3,0.6,-36C7.5,-36.7,15,-31.8,22.2,-26.1Z" width="100%" height="100%" transform="translate(50 50)" style="transition: all 0.3s ease 0s;" stroke-width="0"></path>
              </svg>